<svg width="1240" height="388" viewBox="0 0 1240 388" fill="none" xmlns="http://www.w3.org/2000/svg">
<rect width="1240" height="388" fill="#434341"/>
<path d="M67.1617 35.2848C67.1617 35.409 66.9546 35.8025 66.6853 36.1546C66.4161 36.5066 66.1261 36.9415 66.064 37.1072C65.9811 37.2729 65.3184 38.3498 64.5934 39.4889C63.8478 40.6279 62.7294 42.3882 62.0873 43.4237C61.466 44.4385 60.3475 46.2196 59.6226 47.3586C58.8977 48.4976 57.7792 50.258 57.1372 51.2935C56.4951 52.3082 55.2317 54.3171 54.3411 55.7461C53.4297 57.1751 52.2906 58.9768 51.8142 59.7845C51.3378 60.5715 50.8822 61.2756 50.7993 61.3377C50.6751 61.4413 48.7281 64.5271 48.1689 65.5418C48.0239 65.7904 47.8168 66.1424 47.6925 66.3081C46.5534 67.9649 45.6214 69.5388 45.6835 69.7045C45.7456 69.8702 47.8168 69.8909 52.2492 69.8288L58.7113 69.7252L59.2084 68.7933C59.4776 68.2755 59.809 67.6957 59.954 67.4886C60.4096 66.8673 61.1346 65.604 61.3624 65.0862C61.4867 64.7963 61.8181 64.3614 62.108 64.0921L62.6258 63.6158H87.4801L87.9358 64.1129C88.7021 64.962 89.282 65.8525 91.1047 68.959L91.5603 69.7252L98.2088 69.7874L104.837 69.8288L103.76 68.2341C103.159 67.3436 102.289 66.0182 101.854 65.2726C101.398 64.5271 100.922 63.8022 100.777 63.6572C100.632 63.5123 100.508 63.2845 100.508 63.1809C100.508 63.0774 100.404 62.8703 100.301 62.7253C100.176 62.5803 99.5965 61.7312 99.0166 60.82C98.416 59.9088 97.5461 58.5419 97.049 57.7964C96.5519 57.0301 96.1584 56.3467 96.1584 56.2845C96.1584 56.2017 96.0548 56.036 95.9513 55.891C95.6199 55.5183 94.0872 53.1366 93.1551 51.6041C92.6995 50.8586 92.2231 50.1337 92.0781 49.9887C91.9331 49.8438 91.8089 49.616 91.8089 49.5124C91.8089 49.4089 91.7053 49.2018 91.581 49.0568C91.3532 48.7876 89.9034 46.5509 88.0807 43.6722C87.4594 42.6782 86.3616 40.9593 85.6574 39.8823C84.9325 38.7847 84.3526 37.8528 84.3526 37.8114C84.3526 37.7492 83.9798 37.2108 83.5241 36.5895C83.0685 35.9682 82.6956 35.3676 82.6956 35.2433C82.6956 35.0984 80.1895 35.0362 74.9287 35.0362C69.1915 35.0362 67.1617 35.0984 67.1617 35.2848V35.2848ZM75.4879 43.6722C75.6536 43.8793 76.4407 45.1219 77.207 46.4267C77.994 47.7314 78.6982 48.8497 78.7604 48.9118C78.8432 48.974 79.0296 49.2639 79.1953 49.5538C79.361 49.8645 80.1895 51.2313 81.0387 52.6189C83.2756 56.2224 83.2134 56.1189 82.7785 56.5952C82.4471 56.968 82.0743 56.9887 75.0115 56.9887C68.5494 56.9887 67.5552 56.9473 67.286 56.6573C66.8303 56.2017 66.8718 55.9325 67.576 54.9591C67.9281 54.4828 68.1973 54.0272 68.1973 53.965C68.1973 53.7786 73.9966 44.1072 74.3695 43.6722C74.5352 43.4859 74.7837 43.3202 74.9287 43.3202C75.0737 43.3202 75.3222 43.4859 75.4879 43.6722ZM108.337 52.2668C108.296 61.7519 108.337 69.601 108.42 69.7252C108.503 69.8495 110.615 69.9116 114.261 69.8702L119.977 69.8081V63.5537C119.977 58.2106 120.018 57.2165 120.308 56.823C120.598 56.3881 120.785 56.3674 122.96 56.3674C125.238 56.3674 125.321 56.3881 126.315 57.0301C126.874 57.4029 127.371 57.7549 127.433 57.8171C127.495 57.8792 128.759 58.8526 130.229 59.9916C133.212 62.2697 133.129 62.2076 133.854 62.8081C134.144 63.0567 134.6 63.4087 134.89 63.5951C135.18 63.7815 135.594 64.0921 135.822 64.2785C136.049 64.4649 137.769 65.7904 139.653 67.2193L143.05 69.8288H169.416L169.644 69.3524C170.058 68.5448 171.301 66.4324 172.13 65.1691C172.254 64.9412 172.482 64.5478 172.606 64.2992C172.73 64.0507 173.041 63.8022 173.289 63.7401C174.056 63.533 197.792 63.5951 198.351 63.8022C198.662 63.9265 199.221 64.5892 199.759 65.4797C200.256 66.2874 200.795 67.1779 200.961 67.4264C201.126 67.6957 201.54 68.3377 201.851 68.8761L202.452 69.8288H208.955C212.538 69.8288 215.459 69.7874 215.459 69.7459C215.459 69.6838 215.045 69.0418 214.527 68.2962C214.009 67.53 213.595 66.888 213.595 66.8466C213.595 66.7844 213.201 66.1631 212.725 65.4383C211.772 64.03 211.751 63.9679 210.55 62.0626C210.136 61.3792 209.66 60.6957 209.515 60.5508C209.37 60.4058 209.245 60.178 209.245 60.0744C209.245 59.9709 209.142 59.7638 209.038 59.6188C208.914 59.4739 208.334 58.6247 207.754 57.7135C207.153 56.8023 206.283 55.4354 205.786 54.6899C205.289 53.9236 204.896 53.2402 204.896 53.1781C204.896 53.0952 204.792 52.9295 204.689 52.7846C204.564 52.6396 203.984 51.7905 203.405 50.8793C202.804 49.968 201.934 48.6012 201.437 47.8556C200.94 47.0894 200.546 46.4059 200.546 46.3438C200.546 46.261 200.443 46.0953 200.339 45.9503C200.008 45.5775 198.454 43.1752 197.543 41.6634C197.108 40.9178 196.673 40.2758 196.611 40.2137C196.549 40.1516 196.114 39.5096 195.679 38.764C195.223 38.0185 194.602 37.0451 194.291 36.6102C193.981 36.1753 193.711 35.6368 193.711 35.409C193.711 35.057 193.359 35.0362 185.841 35.0362C179.296 35.0362 177.97 35.0777 177.97 35.3262C177.97 35.4711 177.825 35.7197 177.66 35.8646C177.494 36.0096 176.852 36.9208 176.272 37.9149C175.692 38.8883 175.154 39.7374 175.091 39.7995C175.029 39.8616 174.822 40.1516 174.656 40.4622C174.491 40.7522 173.828 41.8291 173.207 42.8024C172.585 43.7965 171.964 44.8113 171.819 45.0391C171.674 45.2876 171.467 45.6397 171.343 45.8054C171.053 46.1988 169.416 48.8083 167.428 52.0183C166.6 53.323 165.419 55.249 164.756 56.2845C164.114 57.32 163.12 58.894 162.54 59.8052C161.981 60.6957 161.442 61.462 161.359 61.5034C161.256 61.5448 161.194 61.6898 161.194 61.8141C161.194 62.0212 160.303 63.4501 158.688 65.8525C158.356 66.3288 158.087 66.8051 158.087 66.9087C158.087 66.9915 157.859 67.3436 157.59 67.6542L157.072 68.2548L156.368 67.8613C155.974 67.6542 155.332 67.2193 154.959 66.888C154.048 66.1424 153.945 66.0596 153.302 65.6454C153.013 65.459 152.64 65.1691 152.474 65.0241C152.308 64.8584 150.796 63.6779 149.077 62.3732C147.379 61.0892 145.846 59.888 145.701 59.7431C145.556 59.5981 145.349 59.4739 145.287 59.4739C145.204 59.4739 144.914 59.2668 144.624 58.9975C144.334 58.749 142.719 57.465 141 56.1603C139.301 54.8763 137.769 53.6751 137.624 53.5301C137.479 53.3852 137.271 53.2609 137.189 53.2609C137.106 53.2609 136.919 53.0331 136.795 52.7639C136.588 52.3082 136.692 52.1426 138.286 50.6308C139.218 49.7402 140.44 48.6012 141.02 48.1041C142.926 46.3852 146.364 43.2166 147.213 42.3882C147.69 41.9326 148.394 41.2906 148.787 40.9593C150.589 39.4681 154.566 35.5747 154.566 35.3262C154.566 34.8913 140.544 34.8913 140.44 35.3262C140.399 35.4711 139.736 36.196 138.928 36.9001C138.141 37.625 136.733 38.909 135.822 39.7788C134.123 41.3942 132.363 43.0095 130.747 44.4592C130.229 44.9148 129.049 46.0125 128.096 46.903L126.398 48.5183L123.395 48.4562C120.992 48.4148 120.329 48.332 120.184 48.0834C120.06 47.8971 119.977 45.0391 119.977 41.3942V35.0362H108.378L108.337 52.2668ZM186.069 43.5894C186.234 43.7344 187.063 44.9563 187.891 46.3231C189.9 49.6574 189.797 49.5124 190.46 50.4237C190.77 50.8793 191.019 51.3763 191.019 51.5213C191.019 51.6662 191.102 51.8112 191.185 51.8526C191.288 51.8733 191.847 52.7432 192.469 53.7786C193.09 54.7934 193.649 55.6632 193.753 55.7047C194.063 55.8496 193.918 56.3467 193.463 56.6573C193.069 56.9473 191.972 56.9887 185.779 56.9887C181.201 56.9887 178.426 56.9058 178.157 56.7816C177.639 56.4916 177.66 56.1189 178.24 55.1662C178.509 54.752 178.799 54.255 178.861 54.0893C178.944 53.9236 179.172 53.5301 179.379 53.2402C179.689 52.7639 180.684 51.1071 181.388 49.9059C183.563 46.1988 185.364 43.3202 185.53 43.3409C185.654 43.3409 185.882 43.4444 186.069 43.5894V43.5894ZM218.98 52.4325V69.8288H231.407V35.0362H218.98V52.4325ZM45 89.9173V104H57.8621L60.9274 100.997L63.9928 97.9941H226.291L228.611 95.7161C229.874 94.4528 231.013 93.438 231.158 93.438C231.345 93.438 231.407 91.3256 231.407 84.6363V75.8346H45L45 89.9173ZM226.395 77.947C226.581 78.1334 226.643 80.0801 226.643 85.4647V92.7338L225.173 94.225C223.702 95.7368 223.267 95.9646 223.039 95.3847C222.812 94.8048 222.894 78.5269 223.122 78.092C223.309 77.7606 223.578 77.6985 224.738 77.6985C225.566 77.6985 226.25 77.8021 226.395 77.947V77.947ZM63.1229 81.0742L64.2621 82.1718V91.5948L63.2472 92.6717L62.2116 93.7486L57.6343 93.8522L53.0362 93.9557L53.0569 97.6007C53.0776 99.5888 53.0362 101.391 52.9534 101.577C52.8498 101.867 52.5391 101.929 51.2136 101.929C50.3022 101.929 49.5359 101.846 49.4531 101.722C49.2252 101.349 49.3495 80.5358 49.5773 80.2458C49.7637 80.0387 51.0893 79.9766 55.8945 79.9766H61.9838L63.1229 81.0742ZM75.2808 80.4943C75.2601 80.7221 74.7216 81.3849 74.1002 81.9854C73.0232 83.0002 72.8989 83.0624 71.7805 83.1245L70.5792 83.1866L70.5378 88.3434C70.5171 92.3404 70.4342 93.5415 70.2271 93.6658C69.9164 93.8729 67.7624 93.9143 67.286 93.7279C66.996 93.6244 66.9546 92.8995 66.9546 87.7842V81.9647L68.0109 80.9707L69.0879 79.9559L72.2154 80.018C75.2186 80.0801 75.3429 80.1009 75.2808 80.4943V80.4943ZM90.9804 81.0535L92.0988 82.1304L92.1817 86.4588C92.2231 88.8404 92.2024 90.9942 92.1403 91.2634C92.0781 91.512 91.5396 92.1954 90.939 92.796L89.8412 93.8522H78.9054L77.9112 92.8374L76.8963 91.8433V82.1718L77.9733 81.0742L79.0503 79.9766H89.862L90.9804 81.0535ZM107.301 80.3494C107.343 80.515 106.825 81.1778 106.142 81.8612L104.878 83.0831H98.416L98.4781 83.9529L98.5402 84.8434L101.606 84.9055C105.189 84.9677 105.292 85.0505 103.615 86.7073L102.558 87.7428L100.549 87.8463L98.5402 87.9499L98.4781 90.3315L98.416 92.7131L96.9247 94.225C96.1169 95.0326 95.3299 95.7161 95.1849 95.7161C94.7293 95.7161 94.6878 94.9291 94.75 88.4262L94.8121 82.089L95.9513 81.0328L97.0904 79.9973L102.144 80.0387C106.162 80.0801 107.219 80.1423 107.301 80.3494V80.3494ZM122.877 81.0328L123.933 82.1097L123.871 85.1333L123.809 88.157L118.217 88.2605L112.624 88.3641V90.8493L118.113 90.9528C122.773 91.0356 123.602 91.0978 123.643 91.367C123.664 91.5327 123.125 92.1747 122.442 92.7546L121.22 93.8522H110.843L109.828 92.8167L108.793 91.7605V82.1511L109.849 81.0535L110.926 79.9766H121.841L122.877 81.0328ZM142.553 80.3079C142.553 80.4736 142.035 81.1778 141.393 81.8612L140.213 83.0831L135.428 83.1245L130.644 83.1866L130.582 84.2635L130.519 85.3611H139.612L140.668 86.5209L141.725 87.6807V91.5741L140.627 92.7131L139.529 93.8522H132.901C124.844 93.8522 124.906 93.8729 126.874 92.1333L128.22 90.9528H137.789V88.2605H128.862L127.848 87.225C126.646 86.0032 126.543 85.6718 126.626 83.6422L126.708 82.1304L127.848 81.0535L128.966 79.9766H135.76C141.807 79.9766 142.553 80.018 142.553 80.3079V80.3079ZM160.365 80.2872C160.365 80.4529 159.806 81.1571 159.123 81.8405L157.88 83.0831H148.145V85.3611H157.238L158.294 86.3966L159.33 87.4528V91.6362L158.232 92.7546L157.113 93.8522H150.672C147.13 93.8522 144.106 93.79 143.92 93.7279C143.381 93.5208 143.526 93.1688 144.686 92.0297L145.763 90.9528L150.631 90.9114L155.498 90.8493V88.3641L151.024 88.2605C146.095 88.157 146.426 88.2398 144.997 86.7073C144.438 86.1274 144.417 86.0032 144.417 84.1393V82.1925L145.515 81.0742L146.633 79.9766H153.489C159.454 79.9766 160.365 80.018 160.365 80.2872V80.2872ZM166.04 80.7636C166.165 81.1778 166.165 81.7369 166.04 82.2133L165.854 82.9795L164.466 83.0416C162.519 83.1245 162.229 82.9174 162.229 81.5712C162.229 80.9707 162.354 80.3494 162.478 80.2251C162.664 80.0387 163.265 79.9766 164.3 80.018L165.833 80.0801L166.04 80.7636ZM183.21 81.0328L184.287 82.089L184.35 86.6452C184.391 89.7516 184.329 91.4084 184.184 91.7605C184.039 92.0504 183.521 92.651 183.003 93.0652L182.092 93.8522H171.26L170.162 92.7753L169.064 91.6984V82.1097L170.183 81.0328L171.322 79.9766H182.133L183.21 81.0328ZM201.147 80.9707L202.203 81.9647V87.7842C202.203 92.8995 202.162 93.6244 201.872 93.7279C201.395 93.9143 199.241 93.8729 198.951 93.6865C198.765 93.5622 198.682 92.1747 198.641 88.3641L198.579 83.1866H190.915L190.853 88.3848C190.812 93.583 190.812 93.6037 190.335 93.7279C189.755 93.8729 188.14 93.8729 187.56 93.7279L187.084 93.6037V82.1718L188.161 81.0742L189.238 79.9766H200.091L201.147 80.9707ZM219.125 81.0535L220.223 82.1304V91.8433L219.208 92.8374L218.214 93.8522H207.112L205.994 92.7338L204.854 91.5948L204.937 89.5238L204.999 87.4528L206.014 86.4174L207.05 85.3611L211.814 85.3197L216.598 85.2576V83.1866L211.109 83.0831C204.689 82.9588 204.73 82.9795 206.677 81.1156L207.878 79.9766H218.027L219.125 81.0535ZM165.957 84.8641C166.082 85.1541 166.165 87.1422 166.165 89.296C166.165 93.8729 166.165 93.8522 164.342 93.8522C162.043 93.8522 162.229 94.2457 162.229 89.2132C162.229 86.0653 162.291 84.7606 162.478 84.5742C162.623 84.4292 163.348 84.3257 164.238 84.3257C165.688 84.3257 165.771 84.3464 165.957 84.8641V84.8641Z" fill="#D42424"/>
<path d="M53.0776 87.0179V90.9528H60.3268L60.2854 87.0594L60.2232 83.1866L56.6608 83.1245L53.0776 83.0831V87.0179ZM80.5209 83.3523C80.4588 83.4973 80.4381 85.2369 80.4588 87.225L80.5209 90.8493H88.1843V83.1866L84.394 83.1245C81.4322 83.0831 80.583 83.1245 80.5209 83.3523V83.3523ZM112.604 83.373C112.542 83.5387 112.521 84.015 112.562 84.4499L112.624 85.2576H120.288V83.1866L116.497 83.1245C113.391 83.0831 112.707 83.1245 112.604 83.373V83.373ZM172.979 83.1659C172.917 83.228 172.917 89.938 172.979 90.7871C173 90.8907 174.719 90.9528 176.831 90.9528H180.663V83.0831H176.873C174.781 83.0831 173.02 83.1245 172.979 83.1659V83.1659ZM208.914 88.5505C208.852 88.6954 208.831 89.2753 208.873 89.8345L208.935 90.8493H216.598V88.3641L212.808 88.302C209.722 88.2605 209.018 88.302 208.914 88.5505V88.5505Z" fill="#D42424"/>
<rect x="43" y="173" width="66" height="66" fill="#343338"/>
<rect x="43" y="272" width="66" height="66" fill="#8A9DB0"/>
<rect x="44.8857" y="273.886" width="62.2286" height="62.2286" fill="#343338"/>
<rect x="127" y="272" width="66" height="66" fill="#8A9DB0"/>
<rect x="128.886" y="273.886" width="62.2286" height="62.2286" fill="#343338"/>
<rect x="127" y="173" width="66" height="66" fill="#8A9DB0"/>
<rect x="128.886" y="174.886" width="62.2286" height="62.2286" fill="#343338"/>
<path d="M55.1152 164.66V168H53.9902V159.469H57.1367C58.0703 159.469 58.8008 159.707 59.3281 160.184C59.8594 160.66 60.125 161.291 60.125 162.076C60.125 162.904 59.8652 163.543 59.3457 163.992C58.8301 164.438 58.0898 164.66 57.125 164.66H55.1152ZM55.1152 163.74H57.1367C57.7383 163.74 58.1992 163.6 58.5195 163.318C58.8398 163.033 59 162.623 59 162.088C59 161.58 58.8398 161.174 58.5195 160.869C58.1992 160.564 57.7598 160.406 57.2012 160.395H55.1152V163.74ZM64.4551 162.633C64.291 162.605 64.1133 162.592 63.9219 162.592C63.2109 162.592 62.7285 162.895 62.4746 163.5V168H61.3906V161.66H62.4453L62.4629 162.393C62.8184 161.826 63.3223 161.543 63.9746 161.543C64.1855 161.543 64.3457 161.57 64.4551 161.625V162.633ZM65.0527 164.771C65.0527 164.15 65.1738 163.592 65.416 163.096C65.6621 162.6 66.002 162.217 66.4355 161.947C66.873 161.678 67.3711 161.543 67.9297 161.543C68.793 161.543 69.4902 161.842 70.0215 162.439C70.5566 163.037 70.8242 163.832 70.8242 164.824V164.9C70.8242 165.518 70.7051 166.072 70.4668 166.564C70.2324 167.053 69.8945 167.434 69.4531 167.707C69.0156 167.98 68.5117 168.117 67.9414 168.117C67.082 168.117 66.3848 167.818 65.8496 167.221C65.3184 166.623 65.0527 165.832 65.0527 164.848V164.771ZM66.1426 164.9C66.1426 165.604 66.3047 166.168 66.6289 166.594C66.957 167.02 67.3945 167.232 67.9414 167.232C68.4922 167.232 68.9297 167.018 69.2539 166.588C69.5781 166.154 69.7402 165.549 69.7402 164.771C69.7402 164.076 69.5742 163.514 69.2422 163.084C68.9141 162.65 68.4766 162.434 67.9297 162.434C67.3945 162.434 66.9629 162.646 66.6348 163.072C66.3066 163.498 66.1426 164.107 66.1426 164.9ZM71.9258 164.777C71.9258 163.789 72.1543 163.004 72.6113 162.422C73.0684 161.836 73.6738 161.543 74.4277 161.543C75.2012 161.543 75.8047 161.816 76.2383 162.363L76.291 161.66H77.2812V167.848C77.2812 168.668 77.0371 169.314 76.5488 169.787C76.0645 170.26 75.4121 170.496 74.5918 170.496C74.1348 170.496 73.6875 170.398 73.25 170.203C72.8125 170.008 72.4785 169.74 72.248 169.4L72.8105 168.75C73.2754 169.324 73.8438 169.611 74.5156 169.611C75.043 169.611 75.4531 169.463 75.7461 169.166C76.043 168.869 76.1914 168.451 76.1914 167.912V167.367C75.7578 167.867 75.166 168.117 74.416 168.117C73.6738 168.117 73.0723 167.818 72.6113 167.221C72.1543 166.623 71.9258 165.809 71.9258 164.777ZM73.0156 164.9C73.0156 165.615 73.1621 166.178 73.4551 166.588C73.748 166.994 74.1582 167.197 74.6855 167.197C75.3691 167.197 75.8711 166.887 76.1914 166.266V163.371C75.8594 162.766 75.3613 162.463 74.6973 162.463C74.1699 162.463 73.7578 162.668 73.4609 163.078C73.1641 163.488 73.0156 164.096 73.0156 164.9ZM81.9863 162.633C81.8223 162.605 81.6445 162.592 81.4531 162.592C80.7422 162.592 80.2598 162.895 80.0059 163.5V168H78.9219V161.66H79.9766L79.9941 162.393C80.3496 161.826 80.8535 161.543 81.5059 161.543C81.7168 161.543 81.877 161.57 81.9863 161.625V162.633ZM86.668 168C86.6055 167.875 86.5547 167.652 86.5156 167.332C86.0117 167.855 85.4102 168.117 84.7109 168.117C84.0859 168.117 83.5723 167.941 83.1699 167.59C82.7715 167.234 82.5723 166.785 82.5723 166.242C82.5723 165.582 82.8223 165.07 83.3223 164.707C83.8262 164.34 84.5332 164.156 85.4434 164.156H86.498V163.658C86.498 163.279 86.3848 162.979 86.1582 162.756C85.9316 162.529 85.5977 162.416 85.1562 162.416C84.7695 162.416 84.4453 162.514 84.1836 162.709C83.9219 162.904 83.791 163.141 83.791 163.418H82.7012C82.7012 163.102 82.8125 162.797 83.0352 162.504C83.2617 162.207 83.5664 161.973 83.9492 161.801C84.3359 161.629 84.7598 161.543 85.2207 161.543C85.9512 161.543 86.5234 161.727 86.9375 162.094C87.3516 162.457 87.5664 162.959 87.582 163.6V166.518C87.582 167.1 87.6562 167.562 87.8047 167.906V168H86.668ZM84.8691 167.174C85.209 167.174 85.5312 167.086 85.8359 166.91C86.1406 166.734 86.3613 166.506 86.498 166.225V164.924H85.6484C84.3203 164.924 83.6562 165.312 83.6562 166.09C83.6562 166.43 83.7695 166.695 83.9961 166.887C84.2227 167.078 84.5137 167.174 84.8691 167.174ZM90.3008 161.66L90.3301 162.363C90.7949 161.816 91.4219 161.543 92.2109 161.543C93.0977 161.543 93.7012 161.883 94.0215 162.562C94.2324 162.258 94.5059 162.012 94.8418 161.824C95.1816 161.637 95.582 161.543 96.043 161.543C97.4336 161.543 98.1406 162.279 98.1641 163.752V168H97.0801V163.816C97.0801 163.363 96.9766 163.025 96.7695 162.803C96.5625 162.576 96.2148 162.463 95.7266 162.463C95.3242 162.463 94.9902 162.584 94.7246 162.826C94.459 163.064 94.3047 163.387 94.2617 163.793V168H93.1719V163.846C93.1719 162.924 92.7207 162.463 91.8184 162.463C91.1074 162.463 90.6211 162.766 90.3594 163.371V168H89.2754V161.66H90.3008Z" fill="#D42424"/>
<path d="M32.8203 262.547V267H31.3203V255.625H35.5156C36.7604 255.625 37.7344 255.943 38.4375 256.578C39.1458 257.214 39.5 258.055 39.5 259.102C39.5 260.206 39.1536 261.057 38.4609 261.656C37.7734 262.25 36.7865 262.547 35.5 262.547H32.8203ZM32.8203 261.32H35.5156C36.3177 261.32 36.9323 261.133 37.3594 260.758C37.7865 260.378 38 259.831 38 259.117C38 258.44 37.7865 257.898 37.3594 257.492C36.9323 257.086 36.3464 256.875 35.6016 256.859H32.8203V261.32ZM45.2734 259.844C45.0547 259.807 44.8177 259.789 44.5625 259.789C43.6146 259.789 42.9714 260.193 42.6328 261V267H41.1875V258.547H42.5938L42.6172 259.523C43.0911 258.768 43.763 258.391 44.6328 258.391C44.9141 258.391 45.1276 258.427 45.2734 258.5V259.844ZM46.0703 262.695C46.0703 261.867 46.2318 261.122 46.5547 260.461C46.8828 259.799 47.3359 259.289 47.9141 258.93C48.4974 258.57 49.1615 258.391 49.9062 258.391C51.0573 258.391 51.987 258.789 52.6953 259.586C53.4089 260.383 53.7656 261.443 53.7656 262.766V262.867C53.7656 263.69 53.6068 264.43 53.2891 265.086C52.9766 265.737 52.526 266.245 51.9375 266.609C51.3542 266.974 50.6823 267.156 49.9219 267.156C48.776 267.156 47.8464 266.758 47.1328 265.961C46.4245 265.164 46.0703 264.109 46.0703 262.797V262.695ZM47.5234 262.867C47.5234 263.805 47.7396 264.557 48.1719 265.125C48.6094 265.693 49.1927 265.977 49.9219 265.977C50.6562 265.977 51.2396 265.69 51.6719 265.117C52.1042 264.539 52.3203 263.732 52.3203 262.695C52.3203 261.768 52.099 261.018 51.6562 260.445C51.2188 259.867 50.6354 259.578 49.9062 259.578C49.1927 259.578 48.6172 259.862 48.1797 260.43C47.7422 260.997 47.5234 261.81 47.5234 262.867ZM55.2344 262.703C55.2344 261.385 55.5391 260.339 56.1484 259.562C56.7578 258.781 57.5651 258.391 58.5703 258.391C59.6016 258.391 60.4062 258.755 60.9844 259.484L61.0547 258.547H62.375V266.797C62.375 267.891 62.0495 268.753 61.3984 269.383C60.7526 270.013 59.8828 270.328 58.7891 270.328C58.1797 270.328 57.5833 270.198 57 269.938C56.4167 269.677 55.9714 269.32 55.6641 268.867L56.4141 268C57.0339 268.766 57.7917 269.148 58.6875 269.148C59.3906 269.148 59.9375 268.951 60.3281 268.555C60.724 268.159 60.9219 267.602 60.9219 266.883V266.156C60.3438 266.823 59.5547 267.156 58.5547 267.156C57.5651 267.156 56.763 266.758 56.1484 265.961C55.5391 265.164 55.2344 264.078 55.2344 262.703ZM56.6875 262.867C56.6875 263.82 56.8828 264.57 57.2734 265.117C57.6641 265.659 58.2109 265.93 58.9141 265.93C59.8255 265.93 60.4948 265.516 60.9219 264.688V260.828C60.4792 260.021 59.8151 259.617 58.9297 259.617C58.2266 259.617 57.6771 259.891 57.2812 260.438C56.8854 260.984 56.6875 261.794 56.6875 262.867ZM77.125 263.391C76.9844 264.594 76.5391 265.523 75.7891 266.18C75.0443 266.831 74.0521 267.156 72.8125 267.156C71.4688 267.156 70.3906 266.674 69.5781 265.711C68.7708 264.747 68.3672 263.458 68.3672 261.844V260.75C68.3672 259.693 68.5547 258.763 68.9297 257.961C69.3099 257.159 69.8464 256.544 70.5391 256.117C71.2318 255.685 72.0339 255.469 72.9453 255.469C74.1536 255.469 75.1224 255.807 75.8516 256.484C76.5807 257.156 77.0052 258.089 77.125 259.281H75.6172C75.487 258.375 75.2031 257.719 74.7656 257.312C74.3333 256.906 73.7266 256.703 72.9453 256.703C71.987 256.703 71.2344 257.057 70.6875 257.766C70.1458 258.474 69.875 259.482 69.875 260.789V261.891C69.875 263.125 70.1328 264.107 70.6484 264.836C71.1641 265.565 71.8854 265.93 72.8125 265.93C73.6458 265.93 74.2839 265.742 74.7266 265.367C75.1745 264.987 75.4714 264.328 75.6172 263.391H77.125ZM80.3984 259.57C81.0391 258.784 81.8724 258.391 82.8984 258.391C84.6849 258.391 85.5859 259.398 85.6016 261.414V267H84.1562V261.406C84.151 260.797 84.0104 260.346 83.7344 260.055C83.4635 259.763 83.0391 259.617 82.4609 259.617C81.9922 259.617 81.5807 259.742 81.2266 259.992C80.8724 260.242 80.5964 260.57 80.3984 260.977V267H78.9531V255H80.3984V259.57ZM92.9844 267C92.901 266.833 92.8333 266.536 92.7812 266.109C92.1094 266.807 91.3073 267.156 90.375 267.156C89.5417 267.156 88.8568 266.922 88.3203 266.453C87.7891 265.979 87.5234 265.38 87.5234 264.656C87.5234 263.776 87.8568 263.094 88.5234 262.609C89.1953 262.12 90.138 261.875 91.3516 261.875H92.7578V261.211C92.7578 260.706 92.6068 260.305 92.3047 260.008C92.0026 259.706 91.5573 259.555 90.9688 259.555C90.4531 259.555 90.0208 259.685 89.6719 259.945C89.3229 260.206 89.1484 260.521 89.1484 260.891H87.6953C87.6953 260.469 87.8438 260.062 88.1406 259.672C88.4427 259.276 88.849 258.964 89.3594 258.734C89.875 258.505 90.4401 258.391 91.0547 258.391C92.0286 258.391 92.7917 258.635 93.3438 259.125C93.8958 259.609 94.1823 260.279 94.2031 261.133V265.023C94.2031 265.799 94.3021 266.417 94.5 266.875V267H92.9844ZM90.5859 265.898C91.0391 265.898 91.4688 265.781 91.875 265.547C92.2812 265.312 92.5755 265.008 92.7578 264.633V262.898H91.625C89.8542 262.898 88.9688 263.417 88.9688 264.453C88.9688 264.906 89.1198 265.26 89.4219 265.516C89.724 265.771 90.112 265.898 90.5859 265.898ZM97.8359 258.547L97.8828 259.609C98.5286 258.797 99.3724 258.391 100.414 258.391C102.201 258.391 103.102 259.398 103.117 261.414V267H101.672V261.406C101.667 260.797 101.526 260.346 101.25 260.055C100.979 259.763 100.555 259.617 99.9766 259.617C99.5078 259.617 99.0964 259.742 98.7422 259.992C98.388 260.242 98.112 260.57 97.9141 260.977V267H96.4688V258.547H97.8359ZM104.953 262.703C104.953 261.385 105.258 260.339 105.867 259.562C106.477 258.781 107.284 258.391 108.289 258.391C109.32 258.391 110.125 258.755 110.703 259.484L110.773 258.547H112.094V266.797C112.094 267.891 111.768 268.753 111.117 269.383C110.471 270.013 109.602 270.328 108.508 270.328C107.898 270.328 107.302 270.198 106.719 269.938C106.135 269.677 105.69 269.32 105.383 268.867L106.133 268C106.753 268.766 107.51 269.148 108.406 269.148C109.109 269.148 109.656 268.951 110.047 268.555C110.443 268.159 110.641 267.602 110.641 266.883V266.156C110.062 266.823 109.273 267.156 108.273 267.156C107.284 267.156 106.482 266.758 105.867 265.961C105.258 265.164 104.953 264.078 104.953 262.703ZM106.406 262.867C106.406 263.82 106.602 264.57 106.992 265.117C107.383 265.659 107.93 265.93 108.633 265.93C109.544 265.93 110.214 265.516 110.641 264.688V260.828C110.198 260.021 109.534 259.617 108.648 259.617C107.945 259.617 107.396 259.891 107 260.438C106.604 260.984 106.406 261.794 106.406 262.867ZM117.789 267.156C116.643 267.156 115.711 266.781 114.992 266.031C114.273 265.276 113.914 264.268 113.914 263.008V262.742C113.914 261.904 114.073 261.156 114.391 260.5C114.714 259.839 115.161 259.323 115.734 258.953C116.312 258.578 116.938 258.391 117.609 258.391C118.708 258.391 119.562 258.753 120.172 259.477C120.781 260.201 121.086 261.237 121.086 262.586V263.188H115.359C115.38 264.021 115.622 264.695 116.086 265.211C116.555 265.721 117.148 265.977 117.867 265.977C118.378 265.977 118.81 265.872 119.164 265.664C119.518 265.456 119.828 265.18 120.094 264.836L120.977 265.523C120.268 266.612 119.206 267.156 117.789 267.156ZM117.609 259.578C117.026 259.578 116.536 259.792 116.141 260.219C115.745 260.641 115.5 261.234 115.406 262H119.641V261.891C119.599 261.156 119.401 260.589 119.047 260.188C118.693 259.781 118.214 259.578 117.609 259.578Z" fill="white"/>
<path d="M152.115 164.66V168H150.99V159.469H154.137C155.07 159.469 155.801 159.707 156.328 160.184C156.859 160.66 157.125 161.291 157.125 162.076C157.125 162.904 156.865 163.543 156.346 163.992C155.83 164.438 155.09 164.66 154.125 164.66H152.115ZM152.115 163.74H154.137C154.738 163.74 155.199 163.6 155.52 163.318C155.84 163.033 156 162.623 156 162.088C156 161.58 155.84 161.174 155.52 160.869C155.199 160.564 154.76 160.406 154.201 160.395H152.115V163.74ZM162.234 168C162.172 167.875 162.121 167.652 162.082 167.332C161.578 167.855 160.977 168.117 160.277 168.117C159.652 168.117 159.139 167.941 158.736 167.59C158.338 167.234 158.139 166.785 158.139 166.242C158.139 165.582 158.389 165.07 158.889 164.707C159.393 164.34 160.1 164.156 161.01 164.156H162.064V163.658C162.064 163.279 161.951 162.979 161.725 162.756C161.498 162.529 161.164 162.416 160.723 162.416C160.336 162.416 160.012 162.514 159.75 162.709C159.488 162.904 159.357 163.141 159.357 163.418H158.268C158.268 163.102 158.379 162.797 158.602 162.504C158.828 162.207 159.133 161.973 159.516 161.801C159.902 161.629 160.326 161.543 160.787 161.543C161.518 161.543 162.09 161.727 162.504 162.094C162.918 162.457 163.133 162.959 163.148 163.6V166.518C163.148 167.1 163.223 167.562 163.371 167.906V168H162.234ZM160.436 167.174C160.775 167.174 161.098 167.086 161.402 166.91C161.707 166.734 161.928 166.506 162.064 166.225V164.924H161.215C159.887 164.924 159.223 165.312 159.223 166.09C159.223 166.43 159.336 166.695 159.562 166.887C159.789 167.078 160.08 167.174 160.436 167.174ZM164.584 164.777C164.584 163.805 164.814 163.023 165.275 162.434C165.736 161.84 166.34 161.543 167.086 161.543C167.828 161.543 168.416 161.797 168.85 162.305V159H169.934V168H168.938L168.885 167.32C168.451 167.852 167.848 168.117 167.074 168.117C166.34 168.117 165.74 167.816 165.275 167.215C164.814 166.613 164.584 165.828 164.584 164.859V164.777ZM165.668 164.9C165.668 165.619 165.816 166.182 166.113 166.588C166.41 166.994 166.82 167.197 167.344 167.197C168.031 167.197 168.533 166.889 168.85 166.271V163.359C168.525 162.762 168.027 162.463 167.355 162.463C166.824 162.463 166.41 162.668 166.113 163.078C165.816 163.488 165.668 164.096 165.668 164.9Z" fill="white"/>
<path d="M159.688 263.391C159.547 264.594 159.102 265.523 158.352 266.18C157.607 266.831 156.615 267.156 155.375 267.156C154.031 267.156 152.953 266.674 152.141 265.711C151.333 264.747 150.93 263.458 150.93 261.844V260.75C150.93 259.693 151.117 258.763 151.492 257.961C151.872 257.159 152.409 256.544 153.102 256.117C153.794 255.685 154.596 255.469 155.508 255.469C156.716 255.469 157.685 255.807 158.414 256.484C159.143 257.156 159.568 258.089 159.688 259.281H158.18C158.049 258.375 157.766 257.719 157.328 257.312C156.896 256.906 156.289 256.703 155.508 256.703C154.549 256.703 153.797 257.057 153.25 257.766C152.708 258.474 152.438 259.482 152.438 260.789V261.891C152.438 263.125 152.695 264.107 153.211 264.836C153.727 265.565 154.448 265.93 155.375 265.93C156.208 265.93 156.846 265.742 157.289 265.367C157.737 264.987 158.034 264.328 158.18 263.391H159.688ZM170.109 263.391C169.969 264.594 169.523 265.523 168.773 266.18C168.029 266.831 167.036 267.156 165.797 267.156C164.453 267.156 163.375 266.674 162.562 265.711C161.755 264.747 161.352 263.458 161.352 261.844V260.75C161.352 259.693 161.539 258.763 161.914 257.961C162.294 257.159 162.831 256.544 163.523 256.117C164.216 255.685 165.018 255.469 165.93 255.469C167.138 255.469 168.107 255.807 168.836 256.484C169.565 257.156 169.99 258.089 170.109 259.281H168.602C168.471 258.375 168.188 257.719 167.75 257.312C167.318 256.906 166.711 256.703 165.93 256.703C164.971 256.703 164.219 257.057 163.672 257.766C163.13 258.474 162.859 259.482 162.859 260.789V261.891C162.859 263.125 163.117 264.107 163.633 264.836C164.148 265.565 164.87 265.93 165.797 265.93C166.63 265.93 167.268 265.742 167.711 265.367C168.159 264.987 168.456 264.328 168.602 263.391H170.109Z" fill="white"/>
<circle cx="944" cy="107" r="29" fill="#343338"/>
<line x1="964.135" y1="85.9804" x2="945.135" y2="107.98" stroke="#8A9DB0" stroke-width="3"/>
<circle cx="944" cy="71" r="1" fill="#C4C4C4"/>
<circle cx="980" cy="108" r="1" fill="#C4C4C4"/>
<circle cx="908" cy="107" r="1" fill="#C4C4C4"/>
<circle cx="917" cy="131" r="1" fill="#C4C4C4"/>
<circle cx="910" cy="119" r="1" fill="#C4C4C4"/>
<circle cx="909" cy="96" r="1" fill="#C4C4C4"/>
<circle cx="915" cy="85" r="1" fill="#C4C4C4"/>
<circle cx="973" cy="85" r="1" fill="#C4C4C4"/>
<circle cx="979" cy="97" r="1" fill="#C4C4C4"/>
<circle cx="962" cy="74" r="1" fill="#C4C4C4"/>
<circle cx="925" cy="74" r="1" fill="#C4C4C4"/>
<circle cx="971" cy="131" r="1" fill="#C4C4C4"/>
<circle cx="978" cy="119" r="1" fill="#C4C4C4"/>
<circle cx="944" cy="272" r="29" fill="#343338"/>
<line x1="964.135" y1="250.98" x2="945.135" y2="272.98" stroke="#8A9DB0" stroke-width="3"/>
<circle cx="944" cy="236" r="1" fill="#C4C4C4"/>
<circle cx="980" cy="273" r="1" fill="#C4C4C4"/>
<circle cx="908" cy="272" r="1" fill="#C4C4C4"/>
<circle cx="917" cy="296" r="1" fill="#C4C4C4"/>
<circle cx="910" cy="284" r="1" fill="#C4C4C4"/>
<circle cx="909" cy="261" r="1" fill="#C4C4C4"/>
<circle cx="915" cy="250" r="1" fill="#C4C4C4"/>
<circle cx="973" cy="250" r="1" fill="#C4C4C4"/>
<circle cx="979" cy="262" r="1" fill="#C4C4C4"/>
<circle cx="962" cy="239" r="1" fill="#C4C4C4"/>
<circle cx="925" cy="239" r="1" fill="#C4C4C4"/>
<circle cx="971" cy="296" r="1" fill="#C4C4C4"/>
<circle cx="978" cy="284" r="1" fill="#C4C4C4"/>
<circle cx="1026" cy="107" r="29" fill="#343338"/>
<line x1="1046.14" y1="85.9804" x2="1027.14" y2="107.98" stroke="#8A9DB0" stroke-width="3"/>
<circle cx="1026" cy="71" r="1" fill="#C4C4C4"/>
<circle cx="1062" cy="108" r="1" fill="#C4C4C4"/>
<circle cx="990" cy="107" r="1" fill="#C4C4C4"/>
<circle cx="999" cy="131" r="1" fill="#C4C4C4"/>
<circle cx="992" cy="119" r="1" fill="#C4C4C4"/>
<circle cx="991" cy="96" r="1" fill="#C4C4C4"/>
<circle cx="997" cy="85" r="1" fill="#C4C4C4"/>
<circle cx="1055" cy="85" r="1" fill="#C4C4C4"/>
<circle cx="1061" cy="97" r="1" fill="#C4C4C4"/>
<circle cx="1044" cy="74" r="1" fill="#C4C4C4"/>
<circle cx="1007" cy="74" r="1" fill="#C4C4C4"/>
<circle cx="1053" cy="131" r="1" fill="#C4C4C4"/>
<circle cx="1060" cy="119" r="1" fill="#C4C4C4"/>
<circle cx="1026" cy="272" r="29" fill="#343338"/>
<line x1="1046.14" y1="250.98" x2="1027.14" y2="272.98" stroke="#8A9DB0" stroke-width="3"/>
<circle cx="1026" cy="236" r="1" fill="#C4C4C4"/>
<circle cx="1062" cy="273" r="1" fill="#C4C4C4"/>
<circle cx="990" cy="272" r="1" fill="#C4C4C4"/>
<circle cx="999" cy="296" r="1" fill="#C4C4C4"/>
<circle cx="992" cy="284" r="1" fill="#C4C4C4"/>
<circle cx="991" cy="261" r="1" fill="#C4C4C4"/>
<circle cx="997" cy="250" r="1" fill="#C4C4C4"/>
<circle cx="1055" cy="250" r="1" fill="#C4C4C4"/>
<circle cx="1061" cy="262" r="1" fill="#C4C4C4"/>
<circle cx="1044" cy="239" r="1" fill="#C4C4C4"/>
<circle cx="1007" cy="239" r="1" fill="#C4C4C4"/>
<circle cx="1053" cy="296" r="1" fill="#C4C4C4"/>
<circle cx="1060" cy="284" r="1" fill="#C4C4C4"/>
<circle cx="1108" cy="107" r="29" fill="#343338"/>
<line x1="1128.14" y1="85.9804" x2="1109.14" y2="107.98" stroke="#8A9DB0" stroke-width="3"/>
<circle cx="1108" cy="71" r="1" fill="#C4C4C4"/>
<circle cx="1144" cy="108" r="1" fill="#C4C4C4"/>
<circle cx="1072" cy="107" r="1" fill="#C4C4C4"/>
<circle cx="1081" cy="131" r="1" fill="#C4C4C4"/>
<circle cx="1074" cy="119" r="1" fill="#C4C4C4"/>
<circle cx="1073" cy="96" r="1" fill="#C4C4C4"/>
<circle cx="1079" cy="85" r="1" fill="#C4C4C4"/>
<circle cx="1137" cy="85" r="1" fill="#C4C4C4"/>
<circle cx="1143" cy="97" r="1" fill="#C4C4C4"/>
<circle cx="1126" cy="74" r="1" fill="#C4C4C4"/>
<circle cx="1089" cy="74" r="1" fill="#C4C4C4"/>
<circle cx="1135" cy="131" r="1" fill="#C4C4C4"/>
<circle cx="1142" cy="119" r="1" fill="#C4C4C4"/>
<circle cx="1108" cy="272" r="29" fill="#343338"/>
<line x1="1128.14" y1="250.98" x2="1109.14" y2="272.98" stroke="#8A9DB0" stroke-width="3"/>
<circle cx="1108" cy="236" r="1" fill="#C4C4C4"/>
<circle cx="1144" cy="273" r="1" fill="#C4C4C4"/>
<circle cx="1072" cy="272" r="1" fill="#C4C4C4"/>
<circle cx="1081" cy="296" r="1" fill="#C4C4C4"/>
<circle cx="1074" cy="284" r="1" fill="#C4C4C4"/>
<circle cx="1073" cy="261" r="1" fill="#C4C4C4"/>
<circle cx="1079" cy="250" r="1" fill="#C4C4C4"/>
<circle cx="1137" cy="250" r="1" fill="#C4C4C4"/>
<circle cx="1143" cy="262" r="1" fill="#C4C4C4"/>
<circle cx="1126" cy="239" r="1" fill="#C4C4C4"/>
<circle cx="1089" cy="239" r="1" fill="#C4C4C4"/>
<circle cx="1135" cy="296" r="1" fill="#C4C4C4"/>
<circle cx="1142" cy="284" r="1" fill="#C4C4C4"/>
<circle cx="1190" cy="107" r="29" fill="#343338"/>
<line x1="1210.14" y1="85.9804" x2="1191.14" y2="107.98" stroke="#8A9DB0" stroke-width="3"/>
<circle cx="1190" cy="71" r="1" fill="#C4C4C4"/>
<circle cx="1226" cy="108" r="1" fill="#C4C4C4"/>
<circle cx="1154" cy="107" r="1" fill="#C4C4C4"/>
<circle cx="1163" cy="131" r="1" fill="#C4C4C4"/>
<circle cx="1156" cy="119" r="1" fill="#C4C4C4"/>
<circle cx="1155" cy="96" r="1" fill="#C4C4C4"/>
<circle cx="1161" cy="85" r="1" fill="#C4C4C4"/>
<circle cx="1219" cy="85" r="1" fill="#C4C4C4"/>
<circle cx="1225" cy="97" r="1" fill="#C4C4C4"/>
<circle cx="1208" cy="74" r="1" fill="#C4C4C4"/>
<circle cx="1171" cy="74" r="1" fill="#C4C4C4"/>
<circle cx="1217" cy="131" r="1" fill="#C4C4C4"/>
<circle cx="1224" cy="119" r="1" fill="#C4C4C4"/>
<circle cx="1190" cy="272" r="29" fill="#343338"/>
<line x1="1210.14" y1="250.98" x2="1191.14" y2="272.98" stroke="#8A9DB0" stroke-width="3"/>
<circle cx="1190" cy="236" r="1" fill="#C4C4C4"/>
<circle cx="1226" cy="273" r="1" fill="#C4C4C4"/>
<circle cx="1154" cy="272" r="1" fill="#C4C4C4"/>
<circle cx="1163" cy="296" r="1" fill="#C4C4C4"/>
<circle cx="1156" cy="284" r="1" fill="#C4C4C4"/>
<circle cx="1155" cy="261" r="1" fill="#C4C4C4"/>
<circle cx="1161" cy="250" r="1" fill="#C4C4C4"/>
<circle cx="1219" cy="250" r="1" fill="#C4C4C4"/>
<circle cx="1225" cy="262" r="1" fill="#C4C4C4"/>
<circle cx="1208" cy="239" r="1" fill="#C4C4C4"/>
<circle cx="1171" cy="239" r="1" fill="#C4C4C4"/>
<circle cx="1217" cy="296" r="1" fill="#C4C4C4"/>
<circle cx="1224" cy="284" r="1" fill="#C4C4C4"/>
</svg>
